<mxfile host="app.diagrams.net" agent="Mozilla/5.0 (Windows NT 10.0; Win64; x64) AppleWebKit/537.36 (KHTML, like Gecko) Chrome/133.0.0.0 Safari/537.36" version="26.0.13">
  <diagram name="第 1 页" id="o8FVquo6JbahrP2ZJFAv">
    <mxGraphModel dx="789" dy="517" grid="1" gridSize="10" guides="1" tooltips="1" connect="1" arrows="1" fold="1" page="1" pageScale="1" pageWidth="827" pageHeight="1169" math="1" shadow="0">
      <root>
        <mxCell id="0" />
        <mxCell id="1" parent="0" />
        <mxCell id="F_H9awTy2oLGj-WwZngn-88" value="" style="rounded=0;whiteSpace=wrap;html=1;" vertex="1" parent="1">
          <mxGeometry x="31.5" y="181" width="180" height="127" as="geometry" />
        </mxCell>
        <mxCell id="F_H9awTy2oLGj-WwZngn-86" value="" style="rounded=0;whiteSpace=wrap;html=1;" vertex="1" parent="1">
          <mxGeometry x="260" y="22" width="180" height="445" as="geometry" />
        </mxCell>
        <mxCell id="F_H9awTy2oLGj-WwZngn-22" value="" style="group" vertex="1" connectable="0" parent="1">
          <mxGeometry x="280" y="40" width="143" height="156" as="geometry" />
        </mxCell>
        <mxCell id="F_H9awTy2oLGj-WwZngn-1" value="" style="ellipse;whiteSpace=wrap;html=1;aspect=fixed;fillColor=#dae8fc;strokeColor=#6c8ebf;" vertex="1" parent="F_H9awTy2oLGj-WwZngn-22">
          <mxGeometry x="19" width="15" height="15" as="geometry" />
        </mxCell>
        <mxCell id="F_H9awTy2oLGj-WwZngn-2" value="" style="ellipse;whiteSpace=wrap;html=1;aspect=fixed;fillColor=#dae8fc;strokeColor=#6c8ebf;" vertex="1" parent="F_H9awTy2oLGj-WwZngn-22">
          <mxGeometry y="44" width="15" height="15" as="geometry" />
        </mxCell>
        <mxCell id="F_H9awTy2oLGj-WwZngn-3" value="" style="ellipse;whiteSpace=wrap;html=1;aspect=fixed;fillColor=#dae8fc;strokeColor=#6c8ebf;" vertex="1" parent="F_H9awTy2oLGj-WwZngn-22">
          <mxGeometry x="19" y="83" width="15" height="15" as="geometry" />
        </mxCell>
        <mxCell id="F_H9awTy2oLGj-WwZngn-4" value="" style="ellipse;whiteSpace=wrap;html=1;aspect=fixed;fillColor=#dae8fc;strokeColor=#6c8ebf;" vertex="1" parent="F_H9awTy2oLGj-WwZngn-22">
          <mxGeometry x="96" y="10" width="15" height="15" as="geometry" />
        </mxCell>
        <mxCell id="F_H9awTy2oLGj-WwZngn-5" value="" style="ellipse;whiteSpace=wrap;html=1;aspect=fixed;fillColor=#dae8fc;strokeColor=#6c8ebf;" vertex="1" parent="F_H9awTy2oLGj-WwZngn-22">
          <mxGeometry x="82" y="58" width="15" height="15" as="geometry" />
        </mxCell>
        <mxCell id="F_H9awTy2oLGj-WwZngn-6" value="" style="ellipse;whiteSpace=wrap;html=1;aspect=fixed;fillColor=#dae8fc;strokeColor=#6c8ebf;" vertex="1" parent="F_H9awTy2oLGj-WwZngn-22">
          <mxGeometry x="128" y="45" width="15" height="15" as="geometry" />
        </mxCell>
        <mxCell id="F_H9awTy2oLGj-WwZngn-7" value="" style="ellipse;whiteSpace=wrap;html=1;aspect=fixed;fillColor=#dae8fc;strokeColor=#6c8ebf;" vertex="1" parent="F_H9awTy2oLGj-WwZngn-22">
          <mxGeometry x="53" y="24" width="15" height="15" as="geometry" />
        </mxCell>
        <mxCell id="F_H9awTy2oLGj-WwZngn-8" value="" style="ellipse;whiteSpace=wrap;html=1;aspect=fixed;fillColor=#dae8fc;strokeColor=#6c8ebf;" vertex="1" parent="F_H9awTy2oLGj-WwZngn-22">
          <mxGeometry x="32" y="46" width="15" height="15" as="geometry" />
        </mxCell>
        <mxCell id="F_H9awTy2oLGj-WwZngn-9" value="" style="ellipse;whiteSpace=wrap;html=1;aspect=fixed;fillColor=#dae8fc;strokeColor=#6c8ebf;" vertex="1" parent="F_H9awTy2oLGj-WwZngn-22">
          <mxGeometry x="108" y="83" width="15" height="15" as="geometry" />
        </mxCell>
        <mxCell id="F_H9awTy2oLGj-WwZngn-10" value="" style="endArrow=none;html=1;rounded=0;entryX=0;entryY=1;entryDx=0;entryDy=0;exitX=0.5;exitY=0;exitDx=0;exitDy=0;fillColor=#dae8fc;strokeColor=#6c8ebf;" edge="1" parent="F_H9awTy2oLGj-WwZngn-22" source="F_H9awTy2oLGj-WwZngn-2" target="F_H9awTy2oLGj-WwZngn-1">
          <mxGeometry width="50" height="50" relative="1" as="geometry">
            <mxPoint x="-47" y="67" as="sourcePoint" />
            <mxPoint x="3" y="17" as="targetPoint" />
          </mxGeometry>
        </mxCell>
        <mxCell id="F_H9awTy2oLGj-WwZngn-11" value="" style="endArrow=none;html=1;rounded=0;entryX=0;entryY=0;entryDx=0;entryDy=0;exitX=0.5;exitY=1;exitDx=0;exitDy=0;fillColor=#dae8fc;strokeColor=#6c8ebf;" edge="1" parent="F_H9awTy2oLGj-WwZngn-22" source="F_H9awTy2oLGj-WwZngn-2" target="F_H9awTy2oLGj-WwZngn-3">
          <mxGeometry width="50" height="50" relative="1" as="geometry">
            <mxPoint x="21" y="57" as="sourcePoint" />
            <mxPoint x="35" y="20" as="targetPoint" />
          </mxGeometry>
        </mxCell>
        <mxCell id="F_H9awTy2oLGj-WwZngn-13" value="" style="endArrow=none;html=1;rounded=0;entryX=0;entryY=0.5;entryDx=0;entryDy=0;exitX=1;exitY=0.5;exitDx=0;exitDy=0;fillColor=#dae8fc;strokeColor=#6c8ebf;" edge="1" parent="F_H9awTy2oLGj-WwZngn-22" source="F_H9awTy2oLGj-WwZngn-2" target="F_H9awTy2oLGj-WwZngn-8">
          <mxGeometry width="50" height="50" relative="1" as="geometry">
            <mxPoint x="21" y="57" as="sourcePoint" />
            <mxPoint x="35" y="20" as="targetPoint" />
          </mxGeometry>
        </mxCell>
        <mxCell id="F_H9awTy2oLGj-WwZngn-14" value="" style="endArrow=none;html=1;rounded=0;entryX=0;entryY=0;entryDx=0;entryDy=0;exitX=1;exitY=1;exitDx=0;exitDy=0;fillColor=#dae8fc;strokeColor=#6c8ebf;" edge="1" parent="F_H9awTy2oLGj-WwZngn-22" source="F_H9awTy2oLGj-WwZngn-1" target="F_H9awTy2oLGj-WwZngn-7">
          <mxGeometry width="50" height="50" relative="1" as="geometry">
            <mxPoint x="28" y="65" as="sourcePoint" />
            <mxPoint x="58" y="75" as="targetPoint" />
          </mxGeometry>
        </mxCell>
        <mxCell id="F_H9awTy2oLGj-WwZngn-15" value="" style="endArrow=none;html=1;rounded=0;entryX=0.961;entryY=0.299;entryDx=0;entryDy=0;exitX=0;exitY=0.5;exitDx=0;exitDy=0;entryPerimeter=0;fillColor=#dae8fc;strokeColor=#6c8ebf;" edge="1" parent="F_H9awTy2oLGj-WwZngn-22" source="F_H9awTy2oLGj-WwZngn-4" target="F_H9awTy2oLGj-WwZngn-7">
          <mxGeometry width="50" height="50" relative="1" as="geometry">
            <mxPoint x="46" y="20" as="sourcePoint" />
            <mxPoint x="65" y="29" as="targetPoint" />
          </mxGeometry>
        </mxCell>
        <mxCell id="F_H9awTy2oLGj-WwZngn-16" value="" style="endArrow=none;html=1;rounded=0;entryX=0.5;entryY=1;entryDx=0;entryDy=0;exitX=0.703;exitY=0.059;exitDx=0;exitDy=0;exitPerimeter=0;fillColor=#dae8fc;strokeColor=#6c8ebf;" edge="1" parent="F_H9awTy2oLGj-WwZngn-22" source="F_H9awTy2oLGj-WwZngn-5" target="F_H9awTy2oLGj-WwZngn-4">
          <mxGeometry width="50" height="50" relative="1" as="geometry">
            <mxPoint x="63" y="87" as="sourcePoint" />
            <mxPoint x="113" y="37" as="targetPoint" />
          </mxGeometry>
        </mxCell>
        <mxCell id="F_H9awTy2oLGj-WwZngn-17" value="" style="endArrow=none;html=1;rounded=0;entryX=0.212;entryY=0.915;entryDx=0;entryDy=0;exitX=1;exitY=0;exitDx=0;exitDy=0;entryPerimeter=0;fillColor=#dae8fc;strokeColor=#6c8ebf;" edge="1" parent="F_H9awTy2oLGj-WwZngn-22" source="F_H9awTy2oLGj-WwZngn-8" target="F_H9awTy2oLGj-WwZngn-7">
          <mxGeometry width="50" height="50" relative="1" as="geometry">
            <mxPoint x="-17" y="87" as="sourcePoint" />
            <mxPoint x="33" y="37" as="targetPoint" />
          </mxGeometry>
        </mxCell>
        <mxCell id="F_H9awTy2oLGj-WwZngn-18" value="" style="endArrow=none;html=1;rounded=0;exitX=1;exitY=0.5;exitDx=0;exitDy=0;entryX=0;entryY=1;entryDx=0;entryDy=0;fillColor=#dae8fc;strokeColor=#6c8ebf;" edge="1" parent="F_H9awTy2oLGj-WwZngn-22" source="F_H9awTy2oLGj-WwZngn-3" target="F_H9awTy2oLGj-WwZngn-5">
          <mxGeometry width="50" height="50" relative="1" as="geometry">
            <mxPoint x="33" y="137" as="sourcePoint" />
            <mxPoint x="83" y="87" as="targetPoint" />
          </mxGeometry>
        </mxCell>
        <mxCell id="F_H9awTy2oLGj-WwZngn-19" value="" style="endArrow=none;html=1;rounded=0;entryX=0;entryY=0.5;entryDx=0;entryDy=0;exitX=1;exitY=0.5;exitDx=0;exitDy=0;fillColor=#dae8fc;strokeColor=#6c8ebf;" edge="1" parent="F_H9awTy2oLGj-WwZngn-22" source="F_H9awTy2oLGj-WwZngn-5" target="F_H9awTy2oLGj-WwZngn-6">
          <mxGeometry width="50" height="50" relative="1" as="geometry">
            <mxPoint x="83" y="117" as="sourcePoint" />
            <mxPoint x="133" y="67" as="targetPoint" />
          </mxGeometry>
        </mxCell>
        <mxCell id="F_H9awTy2oLGj-WwZngn-20" value="" style="endArrow=none;html=1;rounded=0;entryX=0;entryY=0;entryDx=0;entryDy=0;exitX=1;exitY=1;exitDx=0;exitDy=0;fillColor=#dae8fc;strokeColor=#6c8ebf;" edge="1" parent="F_H9awTy2oLGj-WwZngn-22" source="F_H9awTy2oLGj-WwZngn-5" target="F_H9awTy2oLGj-WwZngn-9">
          <mxGeometry width="50" height="50" relative="1" as="geometry">
            <mxPoint x="118" y="75" as="sourcePoint" />
            <mxPoint x="163" y="65" as="targetPoint" />
          </mxGeometry>
        </mxCell>
        <mxCell id="F_H9awTy2oLGj-WwZngn-21" value="" style="endArrow=none;html=1;rounded=0;entryX=0;entryY=0.5;entryDx=0;entryDy=0;exitX=1;exitY=0.5;exitDx=0;exitDy=0;fillColor=#dae8fc;strokeColor=#6c8ebf;" edge="1" parent="F_H9awTy2oLGj-WwZngn-22" source="F_H9awTy2oLGj-WwZngn-8" target="F_H9awTy2oLGj-WwZngn-5">
          <mxGeometry width="50" height="50" relative="1" as="geometry">
            <mxPoint x="25" y="62" as="sourcePoint" />
            <mxPoint x="50" y="66" as="targetPoint" />
          </mxGeometry>
        </mxCell>
        <mxCell id="F_H9awTy2oLGj-WwZngn-44" value="" style="group" vertex="1" connectable="0" parent="F_H9awTy2oLGj-WwZngn-22">
          <mxGeometry y="133" width="143" height="98" as="geometry" />
        </mxCell>
        <mxCell id="F_H9awTy2oLGj-WwZngn-45" value="" style="ellipse;whiteSpace=wrap;html=1;aspect=fixed;fillColor=#dae8fc;strokeColor=#6c8ebf;" vertex="1" parent="F_H9awTy2oLGj-WwZngn-44">
          <mxGeometry x="19" width="15" height="15" as="geometry" />
        </mxCell>
        <mxCell id="F_H9awTy2oLGj-WwZngn-46" value="" style="ellipse;whiteSpace=wrap;html=1;aspect=fixed;fillColor=#dae8fc;strokeColor=#6c8ebf;" vertex="1" parent="F_H9awTy2oLGj-WwZngn-44">
          <mxGeometry y="44" width="15" height="15" as="geometry" />
        </mxCell>
        <mxCell id="F_H9awTy2oLGj-WwZngn-47" value="" style="ellipse;whiteSpace=wrap;html=1;aspect=fixed;fillColor=#dae8fc;strokeColor=#6c8ebf;" vertex="1" parent="F_H9awTy2oLGj-WwZngn-44">
          <mxGeometry x="19" y="83" width="15" height="15" as="geometry" />
        </mxCell>
        <mxCell id="F_H9awTy2oLGj-WwZngn-48" value="" style="ellipse;whiteSpace=wrap;html=1;aspect=fixed;fillColor=#dae8fc;strokeColor=#6c8ebf;" vertex="1" parent="F_H9awTy2oLGj-WwZngn-44">
          <mxGeometry x="96" y="10" width="15" height="15" as="geometry" />
        </mxCell>
        <mxCell id="F_H9awTy2oLGj-WwZngn-49" value="" style="ellipse;whiteSpace=wrap;html=1;aspect=fixed;fillColor=#dae8fc;strokeColor=#6c8ebf;" vertex="1" parent="F_H9awTy2oLGj-WwZngn-44">
          <mxGeometry x="82" y="58" width="15" height="15" as="geometry" />
        </mxCell>
        <mxCell id="F_H9awTy2oLGj-WwZngn-50" value="" style="ellipse;whiteSpace=wrap;html=1;aspect=fixed;fillColor=#dae8fc;strokeColor=#6c8ebf;" vertex="1" parent="F_H9awTy2oLGj-WwZngn-44">
          <mxGeometry x="128" y="45" width="15" height="15" as="geometry" />
        </mxCell>
        <mxCell id="F_H9awTy2oLGj-WwZngn-51" value="" style="ellipse;whiteSpace=wrap;html=1;aspect=fixed;fillColor=#dae8fc;strokeColor=#6c8ebf;" vertex="1" parent="F_H9awTy2oLGj-WwZngn-44">
          <mxGeometry x="53" y="24" width="15" height="15" as="geometry" />
        </mxCell>
        <mxCell id="F_H9awTy2oLGj-WwZngn-52" value="" style="ellipse;whiteSpace=wrap;html=1;aspect=fixed;fillColor=#dae8fc;strokeColor=#6c8ebf;" vertex="1" parent="F_H9awTy2oLGj-WwZngn-44">
          <mxGeometry x="32" y="46" width="15" height="15" as="geometry" />
        </mxCell>
        <mxCell id="F_H9awTy2oLGj-WwZngn-53" value="" style="ellipse;whiteSpace=wrap;html=1;aspect=fixed;fillColor=#dae8fc;strokeColor=#6c8ebf;" vertex="1" parent="F_H9awTy2oLGj-WwZngn-44">
          <mxGeometry x="108" y="83" width="15" height="15" as="geometry" />
        </mxCell>
        <mxCell id="F_H9awTy2oLGj-WwZngn-54" value="" style="endArrow=none;html=1;rounded=0;entryX=0;entryY=1;entryDx=0;entryDy=0;exitX=0.5;exitY=0;exitDx=0;exitDy=0;fillColor=#dae8fc;strokeColor=#6c8ebf;" edge="1" parent="F_H9awTy2oLGj-WwZngn-44" source="F_H9awTy2oLGj-WwZngn-46" target="F_H9awTy2oLGj-WwZngn-45">
          <mxGeometry width="50" height="50" relative="1" as="geometry">
            <mxPoint x="-47" y="67" as="sourcePoint" />
            <mxPoint x="3" y="17" as="targetPoint" />
          </mxGeometry>
        </mxCell>
        <mxCell id="F_H9awTy2oLGj-WwZngn-55" value="" style="endArrow=none;html=1;rounded=0;entryX=0;entryY=0;entryDx=0;entryDy=0;exitX=0.5;exitY=1;exitDx=0;exitDy=0;fillColor=#dae8fc;strokeColor=#6c8ebf;" edge="1" parent="F_H9awTy2oLGj-WwZngn-44" source="F_H9awTy2oLGj-WwZngn-46" target="F_H9awTy2oLGj-WwZngn-47">
          <mxGeometry width="50" height="50" relative="1" as="geometry">
            <mxPoint x="21" y="57" as="sourcePoint" />
            <mxPoint x="35" y="20" as="targetPoint" />
          </mxGeometry>
        </mxCell>
        <mxCell id="F_H9awTy2oLGj-WwZngn-56" value="" style="endArrow=none;html=1;rounded=0;entryX=0;entryY=0.5;entryDx=0;entryDy=0;exitX=1;exitY=0.5;exitDx=0;exitDy=0;fillColor=#dae8fc;strokeColor=#6c8ebf;" edge="1" parent="F_H9awTy2oLGj-WwZngn-44" source="F_H9awTy2oLGj-WwZngn-46" target="F_H9awTy2oLGj-WwZngn-52">
          <mxGeometry width="50" height="50" relative="1" as="geometry">
            <mxPoint x="21" y="57" as="sourcePoint" />
            <mxPoint x="35" y="20" as="targetPoint" />
          </mxGeometry>
        </mxCell>
        <mxCell id="F_H9awTy2oLGj-WwZngn-57" value="" style="endArrow=none;html=1;rounded=0;entryX=0;entryY=0;entryDx=0;entryDy=0;exitX=1;exitY=1;exitDx=0;exitDy=0;fillColor=#dae8fc;strokeColor=#6c8ebf;" edge="1" parent="F_H9awTy2oLGj-WwZngn-44" source="F_H9awTy2oLGj-WwZngn-45" target="F_H9awTy2oLGj-WwZngn-51">
          <mxGeometry width="50" height="50" relative="1" as="geometry">
            <mxPoint x="28" y="65" as="sourcePoint" />
            <mxPoint x="58" y="75" as="targetPoint" />
          </mxGeometry>
        </mxCell>
        <mxCell id="F_H9awTy2oLGj-WwZngn-58" value="" style="endArrow=none;html=1;rounded=0;entryX=0.961;entryY=0.299;entryDx=0;entryDy=0;exitX=0;exitY=0.5;exitDx=0;exitDy=0;entryPerimeter=0;fillColor=#dae8fc;strokeColor=#6c8ebf;" edge="1" parent="F_H9awTy2oLGj-WwZngn-44" source="F_H9awTy2oLGj-WwZngn-48" target="F_H9awTy2oLGj-WwZngn-51">
          <mxGeometry width="50" height="50" relative="1" as="geometry">
            <mxPoint x="46" y="20" as="sourcePoint" />
            <mxPoint x="65" y="29" as="targetPoint" />
          </mxGeometry>
        </mxCell>
        <mxCell id="F_H9awTy2oLGj-WwZngn-59" value="" style="endArrow=none;html=1;rounded=0;entryX=0.5;entryY=1;entryDx=0;entryDy=0;exitX=0.703;exitY=0.059;exitDx=0;exitDy=0;exitPerimeter=0;fillColor=#dae8fc;strokeColor=#6c8ebf;" edge="1" parent="F_H9awTy2oLGj-WwZngn-44" source="F_H9awTy2oLGj-WwZngn-49" target="F_H9awTy2oLGj-WwZngn-48">
          <mxGeometry width="50" height="50" relative="1" as="geometry">
            <mxPoint x="63" y="87" as="sourcePoint" />
            <mxPoint x="113" y="37" as="targetPoint" />
          </mxGeometry>
        </mxCell>
        <mxCell id="F_H9awTy2oLGj-WwZngn-60" value="" style="endArrow=none;html=1;rounded=0;entryX=0.212;entryY=0.915;entryDx=0;entryDy=0;exitX=1;exitY=0;exitDx=0;exitDy=0;entryPerimeter=0;fillColor=#dae8fc;strokeColor=#6c8ebf;" edge="1" parent="F_H9awTy2oLGj-WwZngn-44" source="F_H9awTy2oLGj-WwZngn-52" target="F_H9awTy2oLGj-WwZngn-51">
          <mxGeometry width="50" height="50" relative="1" as="geometry">
            <mxPoint x="-17" y="87" as="sourcePoint" />
            <mxPoint x="33" y="37" as="targetPoint" />
          </mxGeometry>
        </mxCell>
        <mxCell id="F_H9awTy2oLGj-WwZngn-61" value="" style="endArrow=none;html=1;rounded=0;exitX=1;exitY=0.5;exitDx=0;exitDy=0;entryX=0;entryY=1;entryDx=0;entryDy=0;fillColor=#dae8fc;strokeColor=#6c8ebf;" edge="1" parent="F_H9awTy2oLGj-WwZngn-44" source="F_H9awTy2oLGj-WwZngn-47" target="F_H9awTy2oLGj-WwZngn-49">
          <mxGeometry width="50" height="50" relative="1" as="geometry">
            <mxPoint x="33" y="137" as="sourcePoint" />
            <mxPoint x="83" y="87" as="targetPoint" />
          </mxGeometry>
        </mxCell>
        <mxCell id="F_H9awTy2oLGj-WwZngn-62" value="" style="endArrow=none;html=1;rounded=0;entryX=0;entryY=0.5;entryDx=0;entryDy=0;exitX=1;exitY=0.5;exitDx=0;exitDy=0;fillColor=#dae8fc;strokeColor=#6c8ebf;" edge="1" parent="F_H9awTy2oLGj-WwZngn-44" source="F_H9awTy2oLGj-WwZngn-49" target="F_H9awTy2oLGj-WwZngn-50">
          <mxGeometry width="50" height="50" relative="1" as="geometry">
            <mxPoint x="83" y="117" as="sourcePoint" />
            <mxPoint x="133" y="67" as="targetPoint" />
          </mxGeometry>
        </mxCell>
        <mxCell id="F_H9awTy2oLGj-WwZngn-63" value="" style="endArrow=none;html=1;rounded=0;entryX=0;entryY=0;entryDx=0;entryDy=0;exitX=1;exitY=1;exitDx=0;exitDy=0;fillColor=#dae8fc;strokeColor=#6c8ebf;" edge="1" parent="F_H9awTy2oLGj-WwZngn-44" source="F_H9awTy2oLGj-WwZngn-49" target="F_H9awTy2oLGj-WwZngn-53">
          <mxGeometry width="50" height="50" relative="1" as="geometry">
            <mxPoint x="118" y="75" as="sourcePoint" />
            <mxPoint x="163" y="65" as="targetPoint" />
          </mxGeometry>
        </mxCell>
        <mxCell id="F_H9awTy2oLGj-WwZngn-64" value="" style="endArrow=none;html=1;rounded=0;entryX=0;entryY=0.5;entryDx=0;entryDy=0;exitX=1;exitY=0.5;exitDx=0;exitDy=0;fillColor=#dae8fc;strokeColor=#6c8ebf;" edge="1" parent="F_H9awTy2oLGj-WwZngn-44" source="F_H9awTy2oLGj-WwZngn-52" target="F_H9awTy2oLGj-WwZngn-49">
          <mxGeometry width="50" height="50" relative="1" as="geometry">
            <mxPoint x="25" y="62" as="sourcePoint" />
            <mxPoint x="50" y="66" as="targetPoint" />
          </mxGeometry>
        </mxCell>
        <mxCell id="F_H9awTy2oLGj-WwZngn-23" value="" style="group" vertex="1" connectable="0" parent="1">
          <mxGeometry x="50" y="196" width="143" height="98" as="geometry" />
        </mxCell>
        <mxCell id="F_H9awTy2oLGj-WwZngn-24" value="" style="ellipse;whiteSpace=wrap;html=1;aspect=fixed;fillColor=#dae8fc;strokeColor=#6c8ebf;" vertex="1" parent="F_H9awTy2oLGj-WwZngn-23">
          <mxGeometry x="19" width="15" height="15" as="geometry" />
        </mxCell>
        <mxCell id="F_H9awTy2oLGj-WwZngn-25" value="" style="ellipse;whiteSpace=wrap;html=1;aspect=fixed;fillColor=#dae8fc;strokeColor=#6c8ebf;" vertex="1" parent="F_H9awTy2oLGj-WwZngn-23">
          <mxGeometry y="44" width="15" height="15" as="geometry" />
        </mxCell>
        <mxCell id="F_H9awTy2oLGj-WwZngn-26" value="" style="ellipse;whiteSpace=wrap;html=1;aspect=fixed;fillColor=#dae8fc;strokeColor=#6c8ebf;" vertex="1" parent="F_H9awTy2oLGj-WwZngn-23">
          <mxGeometry x="19" y="83" width="15" height="15" as="geometry" />
        </mxCell>
        <mxCell id="F_H9awTy2oLGj-WwZngn-27" value="" style="ellipse;whiteSpace=wrap;html=1;aspect=fixed;fillColor=#dae8fc;strokeColor=#6c8ebf;" vertex="1" parent="F_H9awTy2oLGj-WwZngn-23">
          <mxGeometry x="96" y="10" width="15" height="15" as="geometry" />
        </mxCell>
        <mxCell id="F_H9awTy2oLGj-WwZngn-28" value="" style="ellipse;whiteSpace=wrap;html=1;aspect=fixed;fillColor=#dae8fc;strokeColor=#6c8ebf;" vertex="1" parent="F_H9awTy2oLGj-WwZngn-23">
          <mxGeometry x="82" y="58" width="15" height="15" as="geometry" />
        </mxCell>
        <mxCell id="F_H9awTy2oLGj-WwZngn-29" value="" style="ellipse;whiteSpace=wrap;html=1;aspect=fixed;fillColor=#dae8fc;strokeColor=#6c8ebf;" vertex="1" parent="F_H9awTy2oLGj-WwZngn-23">
          <mxGeometry x="128" y="45" width="15" height="15" as="geometry" />
        </mxCell>
        <mxCell id="F_H9awTy2oLGj-WwZngn-30" value="" style="ellipse;whiteSpace=wrap;html=1;aspect=fixed;fillColor=#dae8fc;strokeColor=#6c8ebf;" vertex="1" parent="F_H9awTy2oLGj-WwZngn-23">
          <mxGeometry x="53" y="24" width="15" height="15" as="geometry" />
        </mxCell>
        <mxCell id="F_H9awTy2oLGj-WwZngn-31" value="" style="ellipse;whiteSpace=wrap;html=1;aspect=fixed;fillColor=#dae8fc;strokeColor=#6c8ebf;" vertex="1" parent="F_H9awTy2oLGj-WwZngn-23">
          <mxGeometry x="32" y="46" width="15" height="15" as="geometry" />
        </mxCell>
        <mxCell id="F_H9awTy2oLGj-WwZngn-32" value="" style="ellipse;whiteSpace=wrap;html=1;aspect=fixed;fillColor=#dae8fc;strokeColor=#6c8ebf;" vertex="1" parent="F_H9awTy2oLGj-WwZngn-23">
          <mxGeometry x="108" y="83" width="15" height="15" as="geometry" />
        </mxCell>
        <mxCell id="F_H9awTy2oLGj-WwZngn-33" value="" style="endArrow=none;html=1;rounded=0;entryX=0;entryY=1;entryDx=0;entryDy=0;exitX=0.5;exitY=0;exitDx=0;exitDy=0;fillColor=#dae8fc;strokeColor=#6c8ebf;" edge="1" parent="F_H9awTy2oLGj-WwZngn-23" source="F_H9awTy2oLGj-WwZngn-25" target="F_H9awTy2oLGj-WwZngn-24">
          <mxGeometry width="50" height="50" relative="1" as="geometry">
            <mxPoint x="-47" y="67" as="sourcePoint" />
            <mxPoint x="3" y="17" as="targetPoint" />
          </mxGeometry>
        </mxCell>
        <mxCell id="F_H9awTy2oLGj-WwZngn-34" value="" style="endArrow=none;html=1;rounded=0;entryX=0;entryY=0;entryDx=0;entryDy=0;exitX=0.5;exitY=1;exitDx=0;exitDy=0;fillColor=#dae8fc;strokeColor=#6c8ebf;" edge="1" parent="F_H9awTy2oLGj-WwZngn-23" source="F_H9awTy2oLGj-WwZngn-25" target="F_H9awTy2oLGj-WwZngn-26">
          <mxGeometry width="50" height="50" relative="1" as="geometry">
            <mxPoint x="21" y="57" as="sourcePoint" />
            <mxPoint x="35" y="20" as="targetPoint" />
          </mxGeometry>
        </mxCell>
        <mxCell id="F_H9awTy2oLGj-WwZngn-35" value="" style="endArrow=none;html=1;rounded=0;entryX=0;entryY=0.5;entryDx=0;entryDy=0;exitX=1;exitY=0.5;exitDx=0;exitDy=0;fillColor=#dae8fc;strokeColor=#6c8ebf;" edge="1" parent="F_H9awTy2oLGj-WwZngn-23" source="F_H9awTy2oLGj-WwZngn-25" target="F_H9awTy2oLGj-WwZngn-31">
          <mxGeometry width="50" height="50" relative="1" as="geometry">
            <mxPoint x="21" y="57" as="sourcePoint" />
            <mxPoint x="35" y="20" as="targetPoint" />
          </mxGeometry>
        </mxCell>
        <mxCell id="F_H9awTy2oLGj-WwZngn-36" value="" style="endArrow=none;html=1;rounded=0;entryX=0;entryY=0;entryDx=0;entryDy=0;exitX=1;exitY=1;exitDx=0;exitDy=0;fillColor=#dae8fc;strokeColor=#6c8ebf;" edge="1" parent="F_H9awTy2oLGj-WwZngn-23" source="F_H9awTy2oLGj-WwZngn-24" target="F_H9awTy2oLGj-WwZngn-30">
          <mxGeometry width="50" height="50" relative="1" as="geometry">
            <mxPoint x="28" y="65" as="sourcePoint" />
            <mxPoint x="58" y="75" as="targetPoint" />
          </mxGeometry>
        </mxCell>
        <mxCell id="F_H9awTy2oLGj-WwZngn-37" value="" style="endArrow=none;html=1;rounded=0;entryX=0.961;entryY=0.299;entryDx=0;entryDy=0;exitX=0;exitY=0.5;exitDx=0;exitDy=0;entryPerimeter=0;fillColor=#dae8fc;strokeColor=#6c8ebf;" edge="1" parent="F_H9awTy2oLGj-WwZngn-23" source="F_H9awTy2oLGj-WwZngn-27" target="F_H9awTy2oLGj-WwZngn-30">
          <mxGeometry width="50" height="50" relative="1" as="geometry">
            <mxPoint x="46" y="20" as="sourcePoint" />
            <mxPoint x="65" y="29" as="targetPoint" />
          </mxGeometry>
        </mxCell>
        <mxCell id="F_H9awTy2oLGj-WwZngn-38" value="" style="endArrow=none;html=1;rounded=0;entryX=0.5;entryY=1;entryDx=0;entryDy=0;exitX=0.703;exitY=0.059;exitDx=0;exitDy=0;exitPerimeter=0;fillColor=#dae8fc;strokeColor=#6c8ebf;" edge="1" parent="F_H9awTy2oLGj-WwZngn-23" source="F_H9awTy2oLGj-WwZngn-28" target="F_H9awTy2oLGj-WwZngn-27">
          <mxGeometry width="50" height="50" relative="1" as="geometry">
            <mxPoint x="63" y="87" as="sourcePoint" />
            <mxPoint x="113" y="37" as="targetPoint" />
          </mxGeometry>
        </mxCell>
        <mxCell id="F_H9awTy2oLGj-WwZngn-39" value="" style="endArrow=none;html=1;rounded=0;entryX=0.212;entryY=0.915;entryDx=0;entryDy=0;exitX=1;exitY=0;exitDx=0;exitDy=0;entryPerimeter=0;fillColor=#dae8fc;strokeColor=#6c8ebf;" edge="1" parent="F_H9awTy2oLGj-WwZngn-23" source="F_H9awTy2oLGj-WwZngn-31" target="F_H9awTy2oLGj-WwZngn-30">
          <mxGeometry width="50" height="50" relative="1" as="geometry">
            <mxPoint x="-17" y="87" as="sourcePoint" />
            <mxPoint x="33" y="37" as="targetPoint" />
          </mxGeometry>
        </mxCell>
        <mxCell id="F_H9awTy2oLGj-WwZngn-40" value="" style="endArrow=none;html=1;rounded=0;exitX=1;exitY=0.5;exitDx=0;exitDy=0;entryX=0;entryY=1;entryDx=0;entryDy=0;fillColor=#dae8fc;strokeColor=#6c8ebf;" edge="1" parent="F_H9awTy2oLGj-WwZngn-23" source="F_H9awTy2oLGj-WwZngn-26" target="F_H9awTy2oLGj-WwZngn-28">
          <mxGeometry width="50" height="50" relative="1" as="geometry">
            <mxPoint x="33" y="137" as="sourcePoint" />
            <mxPoint x="83" y="87" as="targetPoint" />
          </mxGeometry>
        </mxCell>
        <mxCell id="F_H9awTy2oLGj-WwZngn-41" value="" style="endArrow=none;html=1;rounded=0;entryX=0;entryY=0.5;entryDx=0;entryDy=0;exitX=1;exitY=0.5;exitDx=0;exitDy=0;fillColor=#dae8fc;strokeColor=#6c8ebf;" edge="1" parent="F_H9awTy2oLGj-WwZngn-23" source="F_H9awTy2oLGj-WwZngn-28" target="F_H9awTy2oLGj-WwZngn-29">
          <mxGeometry width="50" height="50" relative="1" as="geometry">
            <mxPoint x="83" y="117" as="sourcePoint" />
            <mxPoint x="133" y="67" as="targetPoint" />
          </mxGeometry>
        </mxCell>
        <mxCell id="F_H9awTy2oLGj-WwZngn-42" value="" style="endArrow=none;html=1;rounded=0;entryX=0;entryY=0;entryDx=0;entryDy=0;exitX=1;exitY=1;exitDx=0;exitDy=0;fillColor=#dae8fc;strokeColor=#6c8ebf;" edge="1" parent="F_H9awTy2oLGj-WwZngn-23" source="F_H9awTy2oLGj-WwZngn-28" target="F_H9awTy2oLGj-WwZngn-32">
          <mxGeometry width="50" height="50" relative="1" as="geometry">
            <mxPoint x="118" y="75" as="sourcePoint" />
            <mxPoint x="163" y="65" as="targetPoint" />
          </mxGeometry>
        </mxCell>
        <mxCell id="F_H9awTy2oLGj-WwZngn-43" value="" style="endArrow=none;html=1;rounded=0;entryX=0;entryY=0.5;entryDx=0;entryDy=0;exitX=1;exitY=0.5;exitDx=0;exitDy=0;fillColor=#dae8fc;strokeColor=#6c8ebf;" edge="1" parent="F_H9awTy2oLGj-WwZngn-23" source="F_H9awTy2oLGj-WwZngn-31" target="F_H9awTy2oLGj-WwZngn-28">
          <mxGeometry width="50" height="50" relative="1" as="geometry">
            <mxPoint x="25" y="62" as="sourcePoint" />
            <mxPoint x="50" y="66" as="targetPoint" />
          </mxGeometry>
        </mxCell>
        <mxCell id="F_H9awTy2oLGj-WwZngn-65" value="" style="group" vertex="1" connectable="0" parent="1">
          <mxGeometry x="280" y="349" width="143" height="98" as="geometry" />
        </mxCell>
        <mxCell id="F_H9awTy2oLGj-WwZngn-66" value="" style="ellipse;whiteSpace=wrap;html=1;aspect=fixed;fillColor=#dae8fc;strokeColor=#6c8ebf;" vertex="1" parent="F_H9awTy2oLGj-WwZngn-65">
          <mxGeometry x="19" width="15" height="15" as="geometry" />
        </mxCell>
        <mxCell id="F_H9awTy2oLGj-WwZngn-67" value="" style="ellipse;whiteSpace=wrap;html=1;aspect=fixed;fillColor=#dae8fc;strokeColor=#6c8ebf;" vertex="1" parent="F_H9awTy2oLGj-WwZngn-65">
          <mxGeometry y="44" width="15" height="15" as="geometry" />
        </mxCell>
        <mxCell id="F_H9awTy2oLGj-WwZngn-68" value="" style="ellipse;whiteSpace=wrap;html=1;aspect=fixed;fillColor=#dae8fc;strokeColor=#6c8ebf;" vertex="1" parent="F_H9awTy2oLGj-WwZngn-65">
          <mxGeometry x="19" y="83" width="15" height="15" as="geometry" />
        </mxCell>
        <mxCell id="F_H9awTy2oLGj-WwZngn-69" value="" style="ellipse;whiteSpace=wrap;html=1;aspect=fixed;fillColor=#dae8fc;strokeColor=#6c8ebf;" vertex="1" parent="F_H9awTy2oLGj-WwZngn-65">
          <mxGeometry x="96" y="10" width="15" height="15" as="geometry" />
        </mxCell>
        <mxCell id="F_H9awTy2oLGj-WwZngn-70" value="" style="ellipse;whiteSpace=wrap;html=1;aspect=fixed;fillColor=#dae8fc;strokeColor=#6c8ebf;" vertex="1" parent="F_H9awTy2oLGj-WwZngn-65">
          <mxGeometry x="82" y="58" width="15" height="15" as="geometry" />
        </mxCell>
        <mxCell id="F_H9awTy2oLGj-WwZngn-71" value="" style="ellipse;whiteSpace=wrap;html=1;aspect=fixed;fillColor=#dae8fc;strokeColor=#6c8ebf;" vertex="1" parent="F_H9awTy2oLGj-WwZngn-65">
          <mxGeometry x="128" y="45" width="15" height="15" as="geometry" />
        </mxCell>
        <mxCell id="F_H9awTy2oLGj-WwZngn-72" value="" style="ellipse;whiteSpace=wrap;html=1;aspect=fixed;fillColor=#dae8fc;strokeColor=#6c8ebf;" vertex="1" parent="F_H9awTy2oLGj-WwZngn-65">
          <mxGeometry x="53" y="24" width="15" height="15" as="geometry" />
        </mxCell>
        <mxCell id="F_H9awTy2oLGj-WwZngn-73" value="" style="ellipse;whiteSpace=wrap;html=1;aspect=fixed;fillColor=#dae8fc;strokeColor=#6c8ebf;" vertex="1" parent="F_H9awTy2oLGj-WwZngn-65">
          <mxGeometry x="32" y="46" width="15" height="15" as="geometry" />
        </mxCell>
        <mxCell id="F_H9awTy2oLGj-WwZngn-74" value="" style="ellipse;whiteSpace=wrap;html=1;aspect=fixed;fillColor=#dae8fc;strokeColor=#6c8ebf;" vertex="1" parent="F_H9awTy2oLGj-WwZngn-65">
          <mxGeometry x="108" y="83" width="15" height="15" as="geometry" />
        </mxCell>
        <mxCell id="F_H9awTy2oLGj-WwZngn-75" value="" style="endArrow=none;html=1;rounded=0;entryX=0;entryY=1;entryDx=0;entryDy=0;exitX=0.5;exitY=0;exitDx=0;exitDy=0;fillColor=#dae8fc;strokeColor=#6c8ebf;" edge="1" parent="F_H9awTy2oLGj-WwZngn-65" source="F_H9awTy2oLGj-WwZngn-67" target="F_H9awTy2oLGj-WwZngn-66">
          <mxGeometry width="50" height="50" relative="1" as="geometry">
            <mxPoint x="-47" y="67" as="sourcePoint" />
            <mxPoint x="3" y="17" as="targetPoint" />
          </mxGeometry>
        </mxCell>
        <mxCell id="F_H9awTy2oLGj-WwZngn-76" value="" style="endArrow=none;html=1;rounded=0;entryX=0;entryY=0;entryDx=0;entryDy=0;exitX=0.5;exitY=1;exitDx=0;exitDy=0;fillColor=#dae8fc;strokeColor=#6c8ebf;" edge="1" parent="F_H9awTy2oLGj-WwZngn-65" source="F_H9awTy2oLGj-WwZngn-67" target="F_H9awTy2oLGj-WwZngn-68">
          <mxGeometry width="50" height="50" relative="1" as="geometry">
            <mxPoint x="21" y="57" as="sourcePoint" />
            <mxPoint x="35" y="20" as="targetPoint" />
          </mxGeometry>
        </mxCell>
        <mxCell id="F_H9awTy2oLGj-WwZngn-77" value="" style="endArrow=none;html=1;rounded=0;entryX=0;entryY=0.5;entryDx=0;entryDy=0;exitX=1;exitY=0.5;exitDx=0;exitDy=0;fillColor=#dae8fc;strokeColor=#6c8ebf;" edge="1" parent="F_H9awTy2oLGj-WwZngn-65" source="F_H9awTy2oLGj-WwZngn-67" target="F_H9awTy2oLGj-WwZngn-73">
          <mxGeometry width="50" height="50" relative="1" as="geometry">
            <mxPoint x="21" y="57" as="sourcePoint" />
            <mxPoint x="35" y="20" as="targetPoint" />
          </mxGeometry>
        </mxCell>
        <mxCell id="F_H9awTy2oLGj-WwZngn-78" value="" style="endArrow=none;html=1;rounded=0;entryX=0;entryY=0;entryDx=0;entryDy=0;exitX=1;exitY=1;exitDx=0;exitDy=0;fillColor=#dae8fc;strokeColor=#6c8ebf;" edge="1" parent="F_H9awTy2oLGj-WwZngn-65" source="F_H9awTy2oLGj-WwZngn-66" target="F_H9awTy2oLGj-WwZngn-72">
          <mxGeometry width="50" height="50" relative="1" as="geometry">
            <mxPoint x="28" y="65" as="sourcePoint" />
            <mxPoint x="58" y="75" as="targetPoint" />
          </mxGeometry>
        </mxCell>
        <mxCell id="F_H9awTy2oLGj-WwZngn-79" value="" style="endArrow=none;html=1;rounded=0;entryX=0.961;entryY=0.299;entryDx=0;entryDy=0;exitX=0;exitY=0.5;exitDx=0;exitDy=0;entryPerimeter=0;fillColor=#dae8fc;strokeColor=#6c8ebf;" edge="1" parent="F_H9awTy2oLGj-WwZngn-65" source="F_H9awTy2oLGj-WwZngn-69" target="F_H9awTy2oLGj-WwZngn-72">
          <mxGeometry width="50" height="50" relative="1" as="geometry">
            <mxPoint x="46" y="20" as="sourcePoint" />
            <mxPoint x="65" y="29" as="targetPoint" />
          </mxGeometry>
        </mxCell>
        <mxCell id="F_H9awTy2oLGj-WwZngn-80" value="" style="endArrow=none;html=1;rounded=0;entryX=0.5;entryY=1;entryDx=0;entryDy=0;exitX=0.703;exitY=0.059;exitDx=0;exitDy=0;exitPerimeter=0;fillColor=#dae8fc;strokeColor=#6c8ebf;" edge="1" parent="F_H9awTy2oLGj-WwZngn-65" source="F_H9awTy2oLGj-WwZngn-70" target="F_H9awTy2oLGj-WwZngn-69">
          <mxGeometry width="50" height="50" relative="1" as="geometry">
            <mxPoint x="63" y="87" as="sourcePoint" />
            <mxPoint x="113" y="37" as="targetPoint" />
          </mxGeometry>
        </mxCell>
        <mxCell id="F_H9awTy2oLGj-WwZngn-81" value="" style="endArrow=none;html=1;rounded=0;entryX=0.212;entryY=0.915;entryDx=0;entryDy=0;exitX=1;exitY=0;exitDx=0;exitDy=0;entryPerimeter=0;fillColor=#dae8fc;strokeColor=#6c8ebf;" edge="1" parent="F_H9awTy2oLGj-WwZngn-65" source="F_H9awTy2oLGj-WwZngn-73" target="F_H9awTy2oLGj-WwZngn-72">
          <mxGeometry width="50" height="50" relative="1" as="geometry">
            <mxPoint x="-17" y="87" as="sourcePoint" />
            <mxPoint x="33" y="37" as="targetPoint" />
          </mxGeometry>
        </mxCell>
        <mxCell id="F_H9awTy2oLGj-WwZngn-82" value="" style="endArrow=none;html=1;rounded=0;exitX=1;exitY=0.5;exitDx=0;exitDy=0;entryX=0;entryY=1;entryDx=0;entryDy=0;fillColor=#dae8fc;strokeColor=#6c8ebf;" edge="1" parent="F_H9awTy2oLGj-WwZngn-65" source="F_H9awTy2oLGj-WwZngn-68" target="F_H9awTy2oLGj-WwZngn-70">
          <mxGeometry width="50" height="50" relative="1" as="geometry">
            <mxPoint x="33" y="137" as="sourcePoint" />
            <mxPoint x="83" y="87" as="targetPoint" />
          </mxGeometry>
        </mxCell>
        <mxCell id="F_H9awTy2oLGj-WwZngn-83" value="" style="endArrow=none;html=1;rounded=0;entryX=0;entryY=0.5;entryDx=0;entryDy=0;exitX=1;exitY=0.5;exitDx=0;exitDy=0;fillColor=#dae8fc;strokeColor=#6c8ebf;" edge="1" parent="F_H9awTy2oLGj-WwZngn-65" source="F_H9awTy2oLGj-WwZngn-70" target="F_H9awTy2oLGj-WwZngn-71">
          <mxGeometry width="50" height="50" relative="1" as="geometry">
            <mxPoint x="83" y="117" as="sourcePoint" />
            <mxPoint x="133" y="67" as="targetPoint" />
          </mxGeometry>
        </mxCell>
        <mxCell id="F_H9awTy2oLGj-WwZngn-84" value="" style="endArrow=none;html=1;rounded=0;entryX=0;entryY=0;entryDx=0;entryDy=0;exitX=1;exitY=1;exitDx=0;exitDy=0;fillColor=#dae8fc;strokeColor=#6c8ebf;" edge="1" parent="F_H9awTy2oLGj-WwZngn-65" source="F_H9awTy2oLGj-WwZngn-70" target="F_H9awTy2oLGj-WwZngn-74">
          <mxGeometry width="50" height="50" relative="1" as="geometry">
            <mxPoint x="118" y="75" as="sourcePoint" />
            <mxPoint x="163" y="65" as="targetPoint" />
          </mxGeometry>
        </mxCell>
        <mxCell id="F_H9awTy2oLGj-WwZngn-85" value="" style="endArrow=none;html=1;rounded=0;entryX=0;entryY=0.5;entryDx=0;entryDy=0;exitX=1;exitY=0.5;exitDx=0;exitDy=0;fillColor=#dae8fc;strokeColor=#6c8ebf;" edge="1" parent="F_H9awTy2oLGj-WwZngn-65" source="F_H9awTy2oLGj-WwZngn-73" target="F_H9awTy2oLGj-WwZngn-70">
          <mxGeometry width="50" height="50" relative="1" as="geometry">
            <mxPoint x="25" y="62" as="sourcePoint" />
            <mxPoint x="50" y="66" as="targetPoint" />
          </mxGeometry>
        </mxCell>
        <mxCell id="F_H9awTy2oLGj-WwZngn-87" value="$$\cdots$$" style="text;html=1;align=center;verticalAlign=middle;whiteSpace=wrap;rounded=0;fontSize=15;" vertex="1" parent="1">
          <mxGeometry x="320" y="297" width="60" height="30" as="geometry" />
        </mxCell>
      </root>
    </mxGraphModel>
  </diagram>
</mxfile>
